<svg xmlns="http://www.w3.org/2000/svg" viewBox="0 0 120 120" width="120" height="120">
  <rect width="120" height="120" fill="#ffffff"/>
  <rect x="8" y="8" width="30" height="30" fill="#000000"/>
  <rect x="16" y="16" width="14" height="14" fill="#ffffff"/>
  <rect x="82" y="8" width="30" height="30" fill="#000000"/>
  <rect x="90" y="16" width="14" height="14" fill="#ffffff"/>
  <rect x="8" y="82" width="30" height="30" fill="#000000"/>
  <rect x="16" y="90" width="14" height="14" fill="#ffffff"/>
  <rect x="48" y="8" width="8" height="8" fill="#000000"/>
  <rect x="64" y="8" width="8" height="8" fill="#000000"/>
  <rect x="48" y="24" width="8" height="8" fill="#000000"/>
  <rect x="48" y="48" width="8" height="8" fill="#000000"/>
  <rect x="64" y="48" width="8" height="8" fill="#000000"/>
  <rect x="80" y="48" width="8" height="8" fill="#000000"/>
  <rect x="96" y="48" width="8" height="8" fill="#000000"/>
  <rect x="48" y="64" width="8" height="8" fill="#000000"/>
  <rect x="80" y="64" width="8" height="8" fill="#000000"/>
  <rect x="48" y="80" width="8" height="8" fill="#000000"/>
  <rect x="64" y="80" width="8" height="8" fill="#000000"/>
  <rect x="96" y="80" width="8" height="8" fill="#000000"/>
  <rect x="64" y="96" width="8" height="8" fill="#000000"/>
  <rect x="80" y="96" width="8" height="8" fill="#000000"/>
  <rect x="96" y="96" width="8" height="8" fill="#000000"/>
</svg>
